HIERARCHY
ROOT Hips
{
 OFFSET 0.000000 0.000000 0.000000
 CHANNELS 6 Xposition Yposition Zposition Yrotation Xrotation Zrotation
 JOINT Chest
 {
  OFFSET 0.000000 9.585900 0.002600
  CHANNELS 3 Yrotation Xrotation Zrotation
  JOINT Chest2
  {
   OFFSET 0.000000 9.601200 -0.005300
   CHANNELS 3 Yrotation Xrotation Zrotation
   JOINT Chest3
   {
    OFFSET 0.000000 9.561800 0.000000
    CHANNELS 3 Yrotation Xrotation Zrotation
    JOINT Chest4
    {
     OFFSET 0.000000 9.552100 0.000000
     CHANNELS 3 Yrotation Xrotation Zrotation
     JOINT Neck
     {
      OFFSET 0.000000 14.453000 0.000000
      CHANNELS 3 Yrotation Xrotation Zrotation
      JOINT Head
      {
       OFFSET 0.000000 8.936500 -0.011300
       CHANNELS 3 Yrotation Xrotation Zrotation
       End Site
       {
        OFFSET 0.000000 17.073600 -0.006000
       }
      }
     }
     JOINT RightCollar
     {
      OFFSET -2.921100 9.558500 0.000000
      CHANNELS 3 Yrotation Xrotation Zrotation
      JOINT RightShoulder
      {
       OFFSET -13.519700 0.000000 0.000000
       CHANNELS 3 Yrotation Xrotation Zrotation
       JOINT RightElbow
       {
        OFFSET 0.000000 -29.696600 0.000000
        CHANNELS 3 Yrotation Xrotation Zrotation
        JOINT RightWrist
        {
         OFFSET 0.000000 -24.004700 0.000000
         CHANNELS 3 Yrotation Xrotation Zrotation
         End Site
         {
          OFFSET 0.000000 -17.728500 0.000000
         }
        }
       }
      }
     }
     JOINT LeftCollar
     {
      OFFSET 2.921100 9.558500 0.000000
      CHANNELS 3 Yrotation Xrotation Zrotation
      JOINT LeftShoulder
      {
       OFFSET 13.519700 0.000000 0.000000
       CHANNELS 3 Yrotation Xrotation Zrotation
       JOINT LeftElbow
       {
        OFFSET 0.000000 -29.696600 0.000000
        CHANNELS 3 Yrotation Xrotation Zrotation
        JOINT LeftWrist
        {
         OFFSET 0.000000 -24.004700 0.000000
         CHANNELS 3 Yrotation Xrotation Zrotation
         End Site
         {
          OFFSET 0.000000 -17.728500 0.000000
         }
        }
       }
      }
     }
    }
   }
  }
 }
 JOINT RightHip
 {
  OFFSET -7.771700 -0.012900 -0.001300
  CHANNELS 3 Yrotation Xrotation Zrotation
  JOINT RightKnee
  {
   OFFSET 0.000000 -40.869800 0.001200
   CHANNELS 3 Yrotation Xrotation Zrotation
   JOINT RightAnkle
   {
    OFFSET 0.000000 -39.717900 0.002100
    CHANNELS 3 Yrotation Xrotation Zrotation
    JOINT RightToe
    {
     OFFSET 0.000000 -4.965400 11.033500
     CHANNELS 3 Yrotation Xrotation Zrotation
     End Site
     {
      OFFSET 0.000000 -1.423100 5.872300
     }
    }
   }
  }
 }
 JOINT LeftHip
 {
  OFFSET 7.771700 -0.012900 -0.001300
  CHANNELS 3 Yrotation Xrotation Zrotation
  JOINT LeftKnee
  {
   OFFSET 0.000000 -40.869800 0.001200
   CHANNELS 3 Yrotation Xrotation Zrotation
   JOINT LeftAnkle
   {
    OFFSET 0.000000 -39.717900 0.002100
    CHANNELS 3 Yrotation Xrotation Zrotation
    JOINT LeftToe
    {
     OFFSET 0.000000 -4.965400 11.033500
     CHANNELS 3 Yrotation Xrotation Zrotation
     End Site
     {
      OFFSET 0.000000 -1.423100 5.872300
     }
    }
   }
  }
 }
}
MOTION
Frames: 12
Frame Time: 0.008333
0.000000 85.388000 0.000000 0.000000 -5.767877 0.000000 0.000000 11.653817 0.000000 0.000000 -5.885947 0.000000 0.000000 -0.000000 0.000000 0.000000 -0.000000 0.000000 0.000000 12.528835 0.000000 0.000000 0.711642 0.000000 0.000000 -0.000000 0.000000 0.000000 0.000000 -90.000000 0.000000 -2.309062 0.000000 0.000000 2.309062 0.000000 0.000000 -0.000000 0.000000 0.000000 -0.000000 90.000000 0.000000 -2.309062 0.000000 0.000000 2.309062 0.000000 0.000000 8.520406 0.000000 0.000000 1.905762 0.000000 -0.000000 -4.658285 0.000000 0.000000 -0.000000 0.000000 0.000000 8.520406 0.000000 0.000000 1.905762 0.000000 -0.000000 -4.658285 0.000000 0.000000 -0.000000 0.000000
-78.874281 50.078098 -5.850450 163.437185 -16.701515 0.339647 3.514835 12.153031 2.087973 0.315038 0.995724 0.065930 0.536497 1.693278 0.115518 3.701133 11.312961 1.089594 3.997630 20.488385 -0.742247 7.486476 2.389867 -2.519100 7.110743 2.476380 -0.954379 10.426395 -27.482574 -16.707007 34.718517 -35.747090 -16.162181 6.109880 12.932521 -28.899463 -11.194520 -1.128690 0.142217 -6.945347 -26.938690 10.465895 -45.534236 -37.002249 23.057726 -5.345883 4.865351 27.646826 0.959828 -64.130306 -1.176055 -107.871844 78.675728 -110.722881 -4.636494 -14.889384 4.245180 -0.702815 1.244220 -0.325102 -6.220327 -68.429551 21.598771 108.200067 76.322790 106.956466 -14.724917 -19.661921 -1.252535 -0.185888 -1.440236 0.114547
-78.886409 50.080144 -5.859680 163.498314 -16.620849 0.337084 3.538094 12.167574 2.088480 0.313184 0.993847 0.067143 0.533515 1.690204 0.117519 3.685871 11.304949 1.102587 3.933802 20.454926 -0.740425 7.357231 2.451721 -2.433730 7.042709 2.490416 -1.001191 10.211962 -27.314015 -16.542655 34.776248 -36.009015 -16.339510 6.138500 12.784548 -28.963549 -11.212268 -1.186493 0.161764 -6.937688 -26.834277 10.463634 -45.605532 -37.078415 23.121800 -5.329566 4.905919 27.666508 0.877811 -64.212870 -1.178257 -107.973047 78.684878 -110.847563 -4.659449 -14.896921 4.239489 -0.681724 1.232346 -0.311980 -6.214186 -68.499269 21.604763 108.296731 76.375884 106.968193 -14.702093 -19.701970 -1.205351 -0.204749 -1.379781 0.096402
-78.902485 50.086184 -5.887411 163.609846 -16.626236 0.363125 3.459364 12.222116 2.038986 0.344317 1.037137 0.067880 0.530101 1.686755 0.119163 3.668073 11.296302 1.113185 3.871131 20.487855 -0.705791 7.234114 2.438124 -2.383476 6.988647 2.460793 -1.032820 9.992190 -27.093382 -16.393422 34.868565 -36.276410 -16.516311 6.147815 12.624123 -29.039614 -11.220305 -1.240534 0.182941 -6.940396 -26.757426 10.490783 -45.618518 -37.124914 23.083042 -5.298717 4.913334 27.725213 0.795473 -64.231707 -1.218908 -108.395452 78.676982 -111.324438 -4.805465 -14.813925 4.232942 -0.566045 1.091955 -0.252299 -6.106704 -68.488051 21.454652 108.412297 76.431684 107.001247 -14.716513 -19.806396 -1.152998 -0.196202 -1.277271 0.126224
-78.916903 50.087931 -5.904685 163.676123 -16.558894 0.366763 3.475626 12.264510 2.027297 0.324754 1.012098 0.068821 0.526102 1.683191 0.120443 3.632723 11.251386 1.116634 3.824057 20.546514 -0.665021 7.122614 2.414551 -2.330861 6.933873 2.547409 -1.075420 9.790592 -26.953727 -16.249907 34.969569 -36.550321 -16.681231 6.139456 12.452756 -29.119594 -11.174100 -1.236552 0.211321 -6.963444 -26.700572 10.530971 -45.585367 -37.202222 23.006769 -5.276100 4.912954 27.778906 0.742451 -64.318586 -1.225039 -108.634280 78.663498 -111.597585 -4.881335 -14.795113 4.238855 -0.502811 1.041702 -0.224335 -6.044795 -68.545550 21.406437 108.531004 76.491922 107.042749 -14.711794 -19.855264 -1.093556 -0.248197 -1.233210 0.119376
-78.931664 50.087045 -5.918545 163.722342 -16.462614 0.366835 3.503436 12.273460 2.019063 0.305978 0.987301 0.069457 0.500347 1.641281 0.123531 3.625101 11.248887 1.121700 3.772581 20.570722 -0.635977 7.017111 2.394020 -2.264935 6.872583 2.639612 -1.115033 9.596613 -26.826345 -16.120635 35.061127 -36.823907 -16.819559 6.115253 12.272362 -29.201887 -11.132993 -1.237925 0.232936 -6.979780 -26.637581 10.601567 -45.517748 -37.301977 22.892548 -5.247542 4.897516 27.840115 0.699986 -64.437598 -1.213964 -108.798422 78.640644 -111.789652 -4.958962 -14.763610 4.230771 -0.428774 0.996948 -0.185070 -5.968561 -68.632901 21.368701 108.631083 76.554439 107.073186 -14.709211 -19.909769 -1.032851 -0.240263 -1.185050 0.117801
-78.948824 50.084048 -5.931384 163.777874 -16.352142 0.372653 3.496507 12.244317 1.995264 0.302715 0.984776 0.069830 0.478300 1.600637 0.126779 3.626894 11.346415 1.127684 3.729015 20.461654 -0.630400 6.897634 2.375744 -2.177348 6.809060 2.609959 -1.154018 9.401497 -26.684517 -16.004913 35.139929 -37.091599 -16.926832 6.080880 12.086616 -29.282710 -11.104988 -1.337691 0.267931 -6.989639 -26.570924 10.701959 -45.438645 -37.433134 22.767112 -5.252777 4.867847 27.900322 0.680463 -64.572524 -1.231402 -108.964191 78.613703 -111.979216 -5.042144 -14.736496 4.218157 -0.347704 0.958911 -0.139561 -5.931442 -68.740730 21.324297 108.736957 76.582454 107.096660 -14.632151 -19.938428 -0.975018 -0.352512 -1.164938 0.036193
-78.966920 50.080741 -5.948549 163.849573 -16.264325 0.383834 3.466793 12.236816 1.962862 0.299095 0.982205 0.070215 0.479604 1.597976 0.125716 3.584676 11.336872 1.132121 3.668582 20.447009 -0.600673 6.811392 2.311589 -2.137604 6.789846 2.598117 -1.174814 9.189220 -26.503256 -15.894865 35.205393 -37.350063 -17.012224 6.046033 11.893936 -29.352567 -11.057192 -1.367961 0.281070 -6.994317 -26.502916 10.825956 -45.334735 -37.582043 22.609508 -5.266287 4.832900 27.966972 0.677926 -64.679939 -1.286182 -109.218531 78.607098 -112.260938 -5.124210 -14.735325 4.224922 -0.291998 0.933862 -0.108706 -5.868117 -68.827378 21.235201 108.846079 76.612051 107.125812 -14.549458 -19.966661 -0.917639 -0.421773 -1.145129 0.005886
-78.985522 50.079344 -5.976698 163.950274 -16.240759 0.405605 3.401106 12.292686 1.916144 0.295208 0.979840 0.070537 0.495680 1.649374 0.123178 3.523562 11.275187 1.133814 3.606540 20.420562 -0.575993 6.729318 2.233025 -2.107053 6.738330 2.660149 -1.201202 9.024777 -26.415758 -15.798766 35.253483 -37.598142 -17.079994 6.014986 11.695084 -29.409545 -11.013220 -1.394845 0.291469 -6.986191 -26.436332 10.964793 -45.205354 -37.746932 22.427258 -5.129954 4.816269 28.041087 0.700591 -64.728287 -1.391894 -109.674888 78.598573 -112.755538 -5.211196 -14.747970 4.266432 -0.257548 0.892926 -0.092886 -5.670538 -68.845696 21.016896 108.924888 76.677736 107.151499 -14.553578 -20.027584 -0.853548 -0.439059 -1.100458 -0.000743
-78.998444 50.075682 -5.997879 163.970144 -16.183862 0.403124 3.418507 12.312092 1.913878 0.291125 0.977658 0.070657 0.496320 1.663881 0.123291 3.474317 11.252240 1.132097 3.558724 20.375140 -0.562709 6.639970 2.145522 -2.071320 6.688026 2.721719 -1.216334 8.879161 -26.348723 -15.716887 35.275410 -37.835953 -17.125233 5.992678 11.496780 -29.455156 -10.961153 -1.385962 0.293031 -6.982942 -26.399508 11.131466 -45.055656 -37.928432 22.226970 -5.029764 4.779081 28.126741 0.710902 -64.816077 -1.397279 -109.939339 78.575976 -113.035742 -5.286103 -14.714516 4.274210 -0.204339 0.841724 -0.062330 -5.284990 -68.891042 20.762814 108.889805 76.794569 107.135994 -14.648398 -20.174223 -0.783929 -0.395351 -0.974226 0.044174
-79.013838 50.071992 -6.020325 164.006297 -16.129251 0.409385 3.397476 12.296300 1.895283 0.300281 1.013673 0.068675 0.489250 1.660810 0.123162 3.431240 11.249112 1.128943 3.511942 20.320712 -0.553548 6.554101 2.041731 -2.043869 6.655712 2.756887 -1.219197 8.731953 -26.277062 -15.642315 35.269399 -38.058776 -17.148574 5.978938 11.299169 -29.490248 -10.932337 -1.411235 0.296675 -6.941894 -26.324477 11.303511 -44.894460 -38.124445 22.011780 -4.961619 4.728973 28.216540 0.721699 -64.883997 -1.438312 -110.177719 78.574692 -113.297674 -5.326612 -14.731959 4.282260 -0.182886 0.832578 -0.044156 -4.940679 -68.940458 20.496052 108.875758 76.874914 107.128716 -14.688892 -20.286889 -0.716945 -0.421435 -0.882199 0.065122
-79.032191 50.068753 -6.043874 164.057702 -16.074777 0.426932 3.376561 12.338188 1.860926 0.288352 0.992793 0.069881 0.482581 1.658144 0.122910 3.390081 11.247087 1.124897 3.465266 20.258601 -0.548443 6.469927 1.924039 -2.024068 6.627366 2.790445 -1.214476 8.591873 -26.227399 -15.574987 35.243743 -38.261458 -17.153070 5.959657 11.100687 -29.522699 -10.909238 -1.434400 0.299602 -6.888429 -26.248468 11.484829 -44.723705 -38.329812 21.785613 -4.889081 4.667516 28.310201 0.751116 -64.951065 -1.517577 -110.453728 78.576537 -113.603218 -5.367163 -14.760945 4.304953 -0.171087 0.828215 -0.035385 -4.607435 -68.996377 20.204352 108.874235 76.936324 107.130340 -14.729640 -20.363352 -0.648157 -0.345695 -0.828967 0.066476
